ModelForces
version=1
nRows=4
nColumns=158
inDegrees=no

This file contains the forces exerted on a model during a simulation.

A force is a generalized force, meaning that it can be either a force (N) or a torque (Nm).

Units are S.I. units (second, meters, Newtons, ...)
Angles are in degrees.

endheader
time	glut_med1_r	glut_med2_r	glut_med3_r	glut_min1_r	glut_min2_r	glut_min3_r	semimem_r	semiten_r	bifemlh_r	bifemsh_r	sar_r	add_long_r	add_brev_r	add_mag1_r	add_mag2_r	add_mag3_r	tfl_r	pect_r	grac_r	glut_max1_r	glut_max2_r	glut_max3_r	iliacus_r	psoas_r	quad_fem_r	gem_r	peri_r	rect_fem_r	vas_med_r	vas_int_r	vas_lat_r	med_gas_r	lat_gas_r	soleus_r	tib_post_r	flex_dig_r	flex_hal_r	tib_ant_r	per_brev_r	per_long_r	per_tert_r	ext_dig_r	ext_hal_r	glut_med1_l	glut_med2_l	glut_med3_l	glut_min1_l	glut_min2_l	glut_min3_l	semimem_l	semiten_l	bifemlh_l	bifemsh_l	sar_l	add_long_l	add_brev_l	add_mag1_l	add_mag2_l	add_mag3_l	tfl_l	pect_l	grac_l	glut_max1_l	glut_max2_l	glut_max3_l	iliacus_l	psoas_l	quad_fem_l	gem_l	peri_l	rect_fem_l	vas_med_l	vas_int_l	vas_lat_l	med_gas_l	lat_gas_l	soleus_l	tib_post_l	flex_dig_l	flex_hal_l	tib_ant_l	per_brev_l	per_long_l	per_tert_l	ext_dig_l	ext_hal_l	ercspn_r	ercspn_l	intobl_r	intobl_l	extobl_r	extobl_l	femur_lat_meniscii_r.femur_lat_r.force.X	femur_lat_meniscii_r.femur_lat_r.force.Y	femur_lat_meniscii_r.femur_lat_r.force.Z	femur_lat_meniscii_r.femur_lat_r.torque.X	femur_lat_meniscii_r.femur_lat_r.torque.Y	femur_lat_meniscii_r.femur_lat_r.torque.Z	femur_lat_meniscii_r.meniscus_lat_r.force.X	femur_lat_meniscii_r.meniscus_lat_r.force.Y	femur_lat_meniscii_r.meniscus_lat_r.force.Z	femur_lat_meniscii_r.meniscus_lat_r.torque.X	femur_lat_meniscii_r.meniscus_lat_r.torque.Y	femur_lat_meniscii_r.meniscus_lat_r.torque.Z	femur_med_meniscii_r.femur_med_r.force.X	femur_med_meniscii_r.femur_med_r.force.Y	femur_med_meniscii_r.femur_med_r.force.Z	femur_med_meniscii_r.femur_med_r.torque.X	femur_med_meniscii_r.femur_med_r.torque.Y	femur_med_meniscii_r.femur_med_r.torque.Z	femur_med_meniscii_r.meniscus_med_r.force.X	femur_med_meniscii_r.meniscus_med_r.force.Y	femur_med_meniscii_r.meniscus_med_r.force.Z	femur_med_meniscii_r.meniscus_med_r.torque.X	femur_med_meniscii_r.meniscus_med_r.torque.Y	femur_med_meniscii_r.meniscus_med_r.torque.Z	femur_med_tibia_r.tibia_upper_r.force.X	femur_med_tibia_r.tibia_upper_r.force.Y	femur_med_tibia_r.tibia_upper_r.force.Z	femur_med_tibia_r.tibia_upper_r.torque.X	femur_med_tibia_r.tibia_upper_r.torque.Y	femur_med_tibia_r.tibia_upper_r.torque.Z	femur_med_tibia_r.femur_med_r.force.X	femur_med_tibia_r.femur_med_r.force.Y	femur_med_tibia_r.femur_med_r.force.Z	femur_med_tibia_r.femur_med_r.torque.X	femur_med_tibia_r.femur_med_r.torque.Y	femur_med_tibia_r.femur_med_r.torque.Z	femur_lat_tibia_r.tibia_upper_r.force.X	femur_lat_tibia_r.tibia_upper_r.force.Y	femur_lat_tibia_r.tibia_upper_r.force.Z	femur_lat_tibia_r.tibia_upper_r.torque.X	femur_lat_tibia_r.tibia_upper_r.torque.Y	femur_lat_tibia_r.tibia_upper_r.torque.Z	femur_lat_tibia_r.femur_lat_r.force.X	femur_lat_tibia_r.femur_lat_r.force.Y	femur_lat_tibia_r.femur_lat_r.force.Z	femur_lat_tibia_r.femur_lat_r.torque.X	femur_lat_tibia_r.femur_lat_r.torque.Y	femur_lat_tibia_r.femur_lat_r.torque.Z	aACL_R	pACL_R	aPCL_R	pPCL_R	aMCL_R	mMCL_R	pMCL_R	aLCL_R	mLCL_R	pLCL_R	aPCL_L	pPCL_L	aMCL_L	aLCL_L	ground_prescribedForce_-20_fx	ground_prescribedForce_-20_fy	ground_prescribedForce_-20_fz
      0.76157193	      7.54725937	      5.66527675	      6.06419971	      2.65872087	      3.17871402	      3.19244994	      5.86158518	      3.99807656	      6.72650359	      6.91643833	      0.00000000	      5.61280350	      4.14395177	      2.91868012	      2.45351293	      3.98707012	      3.80436757	      2.23853178	      1.52237120	      3.65576688	      5.55553537	      4.14706057	     22.64674061	     12.96588617	      3.62637487	      2.85417724	      4.08957584	     11.42515858	      8.63119401	      9.04788136	     11.88300050	      2.38668673	      1.91569324	     10.33007769	     13.58513016	      2.97634318	      2.45501510	     15.31802408	      4.07318862	      8.45594192	     10.82729993	      8.60344564	      2.23207726	      7.54725937	      5.66527675	      6.06419971	      2.65872087	      3.17871402	      3.19244994	      8.74424275	      4.08286410	      7.68206335	      7.21542473	      1.51962092	      5.61280350	      1.68810237	      2.91868012	      2.45351293	      3.98707012	      4.09678201	      2.23853178	      1.55857465	      3.65576688	      5.55553537	      4.14706057	     22.64674061	     12.96588617	      3.62637487	      2.85417724	      4.08957584	     10.66609234	      6.59211628	      7.56167206	      8.13084428	     13.95130158	      6.47790905	     31.08348166	     42.35809443	      2.56914252	      2.83357180	      8.45098756	      4.33356230	     12.44560352	      2.00573447	      5.36920196	      1.70396443	     25.00456442	     25.00456442	      8.99935680	      8.99935680	     26.80403134	     26.80403134	     48.34407762	     75.79109505	     18.03245478	     -9.30401606	      1.17053509	     20.02591046	    -48.34407762	    -75.79109505	    -18.03245478	      2.50064820	     -1.37488852	     -0.92752823	     34.75923160	     44.13055053	     15.32436102	     -5.30711699	     -0.86605986	     14.46115267	    -34.75923160	    -44.13055053	    -15.32436102	     -0.50499477	      0.70189802	     -0.80517767	      0.00000000	      0.00000000	      0.00000000	      0.00000000	      0.00000000	      0.00000000	      0.00000000	      0.00000000	      0.00000000	      0.00000000	      0.00000000	      0.00000000	      0.00000000	      0.00000000	      0.00000000	      0.00000000	      0.00000000	      0.00000000	      0.00000000	      0.00000000	      0.00000000	      0.00000000	      0.00000000	      0.00000000	     50.76419572	     37.51669391	      0.00000000	      0.05805884	      0.00000000	     -0.04335622	      4.08101275	      0.53236432	      0.00000000	      0.00000000	      0.00000000	      0.00000000	      0.00000001	      0.00000000	    103.36618800	    -37.62220000	      0.00000000
      0.76261400	      7.54723620	      5.66526078	      6.06418241	      2.65871369	      3.17870626	      3.19244016	      5.86339346	      3.99890297	      6.72845632	      6.92334098	      0.00000000	      5.61278750	      4.14208339	      2.91867195	      2.45350590	      3.98705746	      3.80474576	      2.23852570	      1.52394749	      3.65575658	      5.55551968	      4.14704864	     22.64671167	     12.96585363	      3.62636487	      2.85417256	      4.08955701	     11.42794299	      8.63494243	      9.05209357	     11.88951633	      2.39189338	      1.92084831	     10.34934597	     13.60437290	      2.97902927	      2.44922513	     15.31164035	      4.07250410	      8.45951586	     10.82317132	      8.62188289	      2.23817648	      7.54723620	      5.66526078	      6.06418241	      2.65871369	      3.17870626	      3.19244016	      8.74420895	      4.08285168	      7.68203525	      7.21540482	      1.51961683	      5.61278750	      3.82633705	      2.91867195	      2.45350590	      3.98705746	      4.09677418	      2.23852570	      1.55857039	      3.65575658	      5.55551968	      4.14704864	     22.64671167	     12.96585363	      3.62636487	      2.85417256	      4.08955701	     10.66605410	      6.59209728	      7.56164984	      8.13082051	     13.95121250	      6.47786761	     31.08333903	     42.35803883	      2.56827014	      2.83317841	      8.45095880	      4.33354502	     12.44556076	      2.00572942	      5.36961778	      1.70407645	     25.00449678	     25.00449678	      8.99933028	      8.99933028	     26.80400753	     26.80400753	     48.35420834	     75.74335490	     17.99092258	     -9.28542571	      1.17055079	     20.03037341	    -48.35420834	    -75.74335490	    -17.99092258	      2.49788981	     -1.37460171	     -0.92843882	     34.78011373	     44.12105671	     15.30654309	     -5.29988096	     -0.86666431	     14.46996325	    -34.78011373	    -44.12105671	    -15.30654309	     -0.50542749	      0.70261143	     -0.80603707	      0.00000000	      0.00000000	      0.00000000	      0.00000000	      0.00000000	      0.00000000	      0.00000000	      0.00000000	      0.00000000	      0.00000000	      0.00000000	      0.00000000	      0.00000000	      0.00000000	      0.00000000	      0.00000000	      0.00000000	      0.00000000	      0.00000000	      0.00000000	      0.00000000	      0.00000000	      0.00000000	      0.00000000	     50.82575315	     37.58259361	      0.00000000	      0.05222333	      0.00000000	     -0.00368635	      4.12064221	      0.55805214	      0.00000000	      0.00000000	      0.00000000	      0.00000000	      0.00000001	      0.00000000	    103.36618800	    -37.62220000	      0.00000000
      0.76313504	      7.54722473	      5.66525288	      6.06417384	      2.65871014	      3.17870242	      3.19243532	      5.86460815	      3.99946657	      6.72959113	      6.92659010	      0.00000000	      5.61277958	      4.14160135	      2.91866791	      2.45350242	      3.98705120	      3.80497668	      2.23852269	      1.52452730	      3.65575149	      5.55551191	      4.14704273	     22.64669734	     12.96583752	      3.62635992	      2.85417024	      4.08954769	     11.42973858	      8.63787215	      9.05532817	     11.89407752	      2.39422611	      1.92349931	     10.35908829	     13.61415216	      2.98028397	      2.44642410	     15.30819466	      4.07223956	      8.46135434	     10.82132921	      8.63137923	      2.24111845	      7.54722473	      5.66525288	      6.06417384	      2.65871014	      3.17870242	      3.19243532	      8.74419222	      4.08284554	      7.68202134	      7.21539496	      1.51961481	      5.61277958	      4.00985969	      2.91866791	      2.45350242	      3.98705120	      4.09677031	      2.23852269	      1.55856828	      3.65575149	      5.55551191	      4.14704273	     22.64669734	     12.96583752	      3.62635992	      2.85417024	      4.08954769	     10.66603517	      6.59208787	      7.56163885	      8.13080875	     13.95116840	      6.47784709	     31.08326843	     42.35801131	      2.56783333	      2.83298164	      8.45094456	      4.33353647	     12.44553959	      2.00572693	      5.36982600	      1.70413251	     25.00446329	     25.00446329	      8.99931716	      8.99931716	     26.80399574	     26.80399574	     48.35746392	     75.72345529	     17.97526723	     -9.27837118	      1.17054266	     20.03182691	    -48.35746392	    -75.72345529	    -17.97526723	      2.49679975	     -1.37447960	     -0.92877815	     34.78823110	     44.11702538	     15.29938528	     -5.29698315	     -0.86689063	     14.47337919	    -34.78823110	    -44.11702538	    -15.29938528	     -0.50559272	      0.70288096	     -0.80636150	      0.00000000	      0.00000000	      0.00000000	      0.00000000	      0.00000000	      0.00000000	      0.00000000	      0.00000000	      0.00000000	      0.00000000	      0.00000000	      0.00000000	      0.00000000	      0.00000000	      0.00000000	      0.00000000	      0.00000000	      0.00000000	      0.00000000	      0.00000000	      0.00000000	      0.00000000	      0.00000000	      0.00000000	     50.84916789	     37.60765115	      0.00000000	      0.04291144	      0.00000000	      0.00608218	      4.13059081	      0.55926576	      0.00000000	      0.00000000	      0.00000000	      0.00000000	      0.00000001	      0.00000000	    103.36618800	    -37.62220000	      0.00000000
      0.76574024	      7.54716852	      5.66521414	      6.06413187	      2.65869273	      3.17868359	      3.19241159	      5.85902359	      3.99570574	      6.72636323	      6.90580446	      0.00000000	      5.61274076	      4.14075451	      2.91864810	      2.45348537	      3.98702050	      3.80367296	      2.23850795	      1.52060057	      3.65572652	      5.55547384	      4.14701380	     22.64662712	     12.96575859	      3.62633566	      2.85415890	      4.08950203	     11.42461186	      8.61706620	      9.03678536	     11.87774707	      2.38997903	      1.93074348	     10.39858664	     13.66722344	      2.98615056	      2.43360956	     15.29553676	      4.06852410	      8.46768391	     10.81079542	      8.68168207	      2.25542856	      7.54716852	      5.66521414	      6.06413187	      2.65869273	      3.17868359	      3.19241159	      8.74411022	      4.08281542	      7.68195317	      7.21534667	      1.51960491	      5.61274076	      4.33359683	      2.91864810	      2.45348537	      3.98702050	      4.09675133	      2.23850795	      1.55855795	      3.65572652	      5.55547384	      4.14701380	     22.64662712	     12.96575859	      3.62633566	      2.85415890	      4.08950203	     10.66594242	      6.59204178	      7.56158495	      8.13075109	     13.95095227	      6.47774654	     31.08292244	     42.35787644	      2.56564301	      2.83199698	      8.45087479	      4.33349455	     12.44543586	      2.00571468	      5.37087006	      1.70441332	     25.00429921	     25.00429921	      8.99925285	      8.99925285	     26.80393797	     26.80393797	     48.32462972	     75.74254613	     18.05488460	     -9.31228588	      1.17014557	     20.01794894	    -48.32462972	    -75.74254613	    -18.05488460	      2.50014222	     -1.37458245	     -0.92733178	     34.85043725	     44.23730835	     15.37379590	     -5.32524741	     -0.86819457	     14.49910846	    -34.85043725	    -44.23730835	    -15.37379590	     -0.50572559	      0.70357019	     -0.80733711	      0.00000000	      0.00000000	      0.00000000	      0.00000000	      0.00000000	      0.00000000	      0.00000000	      0.00000000	      0.00000000	      0.00000000	      0.00000000	      0.00000000	      0.00000000	      0.00000000	      0.00000000	      0.00000000	      0.00000000	      0.00000000	      0.00000000	      0.00000000	      0.00000000	      0.00000000	      0.00000000	      0.00000000	     50.77964818	     37.53139326	      0.00000000	      0.09442024	      0.00000000	     -0.01387073	      4.10638764	      0.55505155	      0.00000000	      0.00000000	      0.00000000	      0.00000000	      0.00000001	      0.00000000	    103.36618800	    -37.62220000	      0.00000000
